<?xml version="1.0" encoding="utf-8"?>
<!-- Generated by IcoMoon.io -->
<!DOCTYPE svg PUBLIC "-//W3C//DTD SVG 1.1//EN" "http://www.w3.org/Graphics/SVG/1.1/DTD/svg11.dtd">
<svg version="1.1" xmlns="http://www.w3.org/2000/svg" xmlns:xlink="http://www.w3.org/1999/xlink" width="27" height="32" viewBox="0 0 27 32">
<path fill="#fff" d="M25.933 7.442c-0.201 0-0.408 0.056-0.626 0.17l-11.703 7.149-10.578-6.317 10.589-6.323 0.346 0.199c0.034 0.013 0.067 0.028 0.096 0.046l4.174 2.418c0.417 0.226 0.743 0.236 1.061 0.046l0.692-0.395c0.169-0.101 0.27-0.242 0.282-0.398 0.011-0.136-0.049-0.268-0.182-0.385l0.002-0.004c-0.032-0.026-0.068-0.053-0.108-0.076l-5.812-3.349c-0.262-0.152-0.682-0.181-0.999-0.072-0.075 0.026-0.134 0.053-0.185 0.083l-6.195 3.724 0.003 0.005-5.749 3.436c-0.414 0.269-0.647 0.626-0.655 1.006-0.009 0.354 0.187 0.692 0.559 0.958l12.060 7.253c0.319 0.191 0.862 0.19 1.18-0.002l10.906-6.608v12.461l-11.514 6.876-11.515-6.876-0.002-0.443c-0.006-0.038-0.010-0.076-0.010-0.113v-3.805c0-0.379-0.183-0.705-0.484-0.867-0.035-0.028-0.070-0.054-0.106-0.076l-0.563-0.335c-0.044-0.026-0.086-0.046-0.127-0.060-0.279-0.098-0.53 0.050-0.588 0.343l-0.003 0.014 0.002 5.892c0.057 0.36 0.295 0.729 0.577 0.899l12.217 7.29c0.159 0.095 0.368 0.148 0.589 0.148 0.222 0 0.432-0.053 0.592-0.149l12.216-7.314c0.33-0.198 0.589-0.661 0.589-1.054l0.003-14.303c0-0.537-0.385-1.093-1.030-1.093z"></path>
<path fill="#fff" d="M12.182 23.867l-2.676-1.544c-0.28-0.161-0.559 0.014-0.559 0.336v1.060c0 0.279 0.184 0.604 0.42 0.741l2.678 1.558c0.075 0.044 0.149 0.066 0.222 0.066 0.1 0 0.189-0.042 0.25-0.121 0.056-0.071 0.085-0.168 0.085-0.28v-1.077c0-0.279-0.185-0.604-0.421-0.74z"></path>
<path fill="#fff" d="M12.604 20.675c0-0.279-0.186-0.603-0.423-0.739l-4.262-2.43c-0.281-0.161-0.56 0.016-0.56 0.338v1.062c0 0.279 0.186 0.603 0.423 0.738l4.263 2.431c0.074 0.042 0.148 0.064 0.22 0.064 0.1 0 0.19-0.043 0.252-0.121 0.057-0.072 0.087-0.169 0.087-0.281v-1.061z"></path>
</svg>
